<svg id="Job_Consultants" data-name="Job Consultants" xmlns="http://www.w3.org/2000/svg" width="28" height="28" viewBox="0 0 28 28">
  <defs>
    <style>
      .cls-1 {
        fill: none;
      }

      .cls-2 {
        fill: #c1ffc1;
      }

      .cls-3 {
        fill: #b0eeb0;
      }

      .cls-4 {
        fill: #fff;
      }

      .cls-5, .cls-7 {
        fill: #323c6b;
      }

      .cls-5 {
        stroke: #323c6b;
        stroke-width: 0.4px;
      }

      .cls-6 {
        fill: #ffd39f;
      }

      .cls-8 {
        fill: #05afd6;
      }

      .cls-9 {
        fill: #e9c8a0;
      }

      .cls-10 {
        fill: #f7be56;
      }

      .cls-11 {
        fill: #828a9e;
      }

      .cls-12 {
        fill: #62667c;
      }
    </style>
  </defs>
  <path id="Rectangle_91" data-name="Rectangle 91" class="cls-1" d="M0,0H28V28H0Z"/>
  <g id="Icons" transform="translate(4.8 2.934)">
    <path id="Path_12621" data-name="Path 12621" class="cls-2" d="M21.248,45.188a6.642,6.642,0,0,1,6.285,6.555v2.029H8.729V51.743a6.672,6.672,0,0,1,6.318-6.555" transform="translate(-8.563 -31.938)"/>
    <path id="Path_12622" data-name="Path 12622" class="cls-3" d="M8.729,68.083h18.8v.97H8.729Z" transform="translate(-8.563 -47.219)"/>
    <path id="Path_12623" data-name="Path 12623" class="cls-3" d="M46.406,45.209v.006a1.1,1.1,0,0,1-.116.284,6.354,6.354,0,0,1,5.273,6.259v2.029H52.6V51.757A6.643,6.643,0,0,0,46.406,45.209Z" transform="translate(-33.633 -31.952)"/>
    <path id="Path_12624" data-name="Path 12624" class="cls-4" d="M27.731,43.588l.8-.8,2.279,1.959-1.921,1.629Z" transform="translate(-21.246 -30.338)"/>
    <path id="Path_12625" data-name="Path 12625" class="cls-5" d="M28.558,46.209a.16.16,0,0,1-.039,0,.166.166,0,0,1-.115-.1l-1.161-2.791a.166.166,0,0,1,.037-.182l.8-.8a.166.166,0,0,1,.225-.008l2.279,1.959a.166.166,0,0,1,0,.253L28.667,46.17A.166.166,0,0,1,28.558,46.209Zm-.964-2.918,1.031,2.477,1.6-1.356-2.015-1.732Z" transform="translate(-20.912 -30.002)"/>
    <path id="Path_12626" data-name="Path 12626" class="cls-4" d="M40.117,43.588l-.838-.8L37,44.75l1.921,1.629Z" transform="translate(-27.432 -30.338)"/>
    <path id="Path_12627" data-name="Path 12627" class="cls-5" d="M38.589,46.21a.166.166,0,0,1-.107-.04L36.56,44.541a.166.166,0,0,1,0-.253l2.279-1.959a.166.166,0,0,1,.223.006l.838.8a.166.166,0,0,1,.038.186l-1.2,2.791a.166.166,0,0,1-.153.1Zm-1.665-1.8,1.6,1.357,1.061-2.477-.645-.614Z" transform="translate(-27.099 -30.003)"/>
    <path id="Path_12628" data-name="Path 12628" class="cls-6" d="M34.7,42.791,32.426,44.75l-2.279-1.959Z" transform="translate(-22.858 -30.338)"/>
    <path id="Path_12629" data-name="Path 12629" class="cls-7" d="M32.092,44.582a.166.166,0,0,1-.108-.04L29.7,42.583a.166.166,0,0,1,.108-.292h4.558a.166.166,0,0,1,.108.292L32.2,44.542A.166.166,0,0,1,32.092,44.582Zm-1.829-1.959L32.092,44.2l1.829-1.573Z" transform="translate(-22.525 -30.004)"/>
    <path id="Path_12630" data-name="Path 12630" class="cls-8" d="M36.058,49.491l-.359.737H34.52l-.363-.745.945-.8Z" transform="translate(-25.535 -34.269)"/>
    <path id="Path_12631" data-name="Path 12631" class="cls-5" d="M35.364,50.061H34.186a.166.166,0,0,1-.149-.093l-.364-.746a.166.166,0,0,1,.042-.2l.946-.8a.166.166,0,0,1,.215,0l.957.81a.166.166,0,0,1,.042.2l-.359.737a.166.166,0,0,1-.151.093Zm-1.074-.333h.97l.257-.528-.749-.635-.74.627Z" transform="translate(-25.201 -33.936)"/>
    <path id="Path_12632" data-name="Path 12632" class="cls-8" d="M35.664,57.989l-1.354,1.219-1.34-1.219.759-4.656h1.178Z" transform="translate(-24.742 -37.374)"/>
    <path id="Path_12633" data-name="Path 12633" class="cls-5" d="M33.976,59.039A.166.166,0,0,1,33.864,59l-1.34-1.22a.166.166,0,0,1-.052-.15l.759-4.656a.166.166,0,0,1,.164-.139h1.178a.166.166,0,0,1,.164.139l.759,4.656a.166.166,0,0,1-.053.15l-1.354,1.219a.166.166,0,0,1-.111.044Zm-1.162-1.448,1.164,1.058,1.175-1.058-.723-4.427h-.9Z" transform="translate(-24.408 -37.039)"/>
    <path id="Path_12636" data-name="Path 12636" class="cls-6" d="M20.288,27.1c-.389.051-.8.514-.659,1.286a1.5,1.5,0,0,0,1.43,1.286" transform="translate(-15.819 -19.865)"/>
    <path id="Path_12637" data-name="Path 12637" class="cls-5" d="M20.72,29.5h0a1.666,1.666,0,0,1-1.589-1.422,1.414,1.414,0,0,1,.2-1.1.906.906,0,0,1,.6-.38.166.166,0,1,1,.043.33.575.575,0,0,0-.376.245,1.089,1.089,0,0,0-.141.845,1.339,1.339,0,0,0,1.271,1.151.166.166,0,1,1,0,.333Z" transform="translate(-15.478 -19.527)"/>
    <path id="Path_12638" data-name="Path 12638" class="cls-6" d="M50.823,27.1c.389.051.8.514.659,1.286a1.5,1.5,0,0,1-1.43,1.286" transform="translate(-36.144 -19.865)"/>
    <path id="Path_12639" data-name="Path 12639" class="cls-5" d="M49.71,29.5a.166.166,0,1,1,0-.333,1.339,1.339,0,0,0,1.272-1.15,1.089,1.089,0,0,0-.141-.845.575.575,0,0,0-.376-.245.166.166,0,1,1,.043-.33.906.906,0,0,1,.6.379,1.414,1.414,0,0,1,.2,1.1A1.666,1.666,0,0,1,49.715,29.5Z" transform="translate(-35.803 -19.528)"/>
    <path id="Path_12640" data-name="Path 12640" class="cls-6" d="M32.219,20.191l-.429-1.613-.7-1.136L30.2,16.25l-2.755.388-4.868.776v2.777c0,2.657,2.225,5.649,4.8,5.649s4.689-3.054,4.839-5.788Z" transform="translate(-17.806 -12.623)"/>
    <path id="Path_12641" data-name="Path 12641" class="cls-9" d="M40.867,20.154c-.193,2.707-2.281,5.687-4.829,5.687a3.454,3.454,0,0,1-.489-.037c1.888-.278,3.455-2.155,4.074-4.207a4.377,4.377,0,0,0,.02-2.388,4.492,4.492,0,0,0-.508-1.189l-.353-.58-.8-1.067.878-.123.895,1.191.7,1.137Z" transform="translate(-26.464 -12.623)"/>
    <path id="Path_12642" data-name="Path 12642" class="cls-10" d="M51.55,27.684c0,.033-.008.068-.01.1l.01.038Z" transform="translate(-37.137 -20.255)"/>
    <path id="Path_12643" data-name="Path 12643" class="cls-5" d="M27.048,25.674c-2.752,0-4.969-3.181-4.969-5.815V17.081a.166.166,0,0,1,.14-.164l4.868-.776,2.758-.388a.169.169,0,0,1,.156.067L30.9,17.01l.7,1.149a.18.18,0,0,1,.019.044l.366,1.384a.166.166,0,0,1,.067.133v.14a.166.166,0,0,1-.014.067C31.8,22.681,29.665,25.674,27.048,25.674Zm-4.636-8.451v2.635c0,2.483,2.068,5.482,4.636,5.482,2.457,0,4.459-2.872,4.664-5.494L31.3,18.309l-.684-1.115-.826-1.1-2.658.374Z" transform="translate(-17.473 -12.29)"/>
    <path id="Path_12644" data-name="Path 12644" class="cls-11" d="M31.054,9.677c0,.16-.446,3.134-.446,3.134a.358.358,0,0,1-.7.07l-.3-.938C29.039,10.227,27.472,9.9,25.54,10.5a17.413,17.413,0,0,1-3.352.738,1.131,1.131,0,0,0-.984.848l-.19.931a.282.282,0,0,1-.279.226.288.288,0,0,1-.283-.226s-.281-.933-.488-1.754a4.42,4.42,0,0,1,.186-2.827q.059-.137.128-.271s.007-.007.007-.01h0A5.638,5.638,0,0,1,25,5.841a4.117,4.117,0,0,1,3.233,1.512c.432-.493,2.874-.306,2.817,2.324Z" transform="translate(-15.963 -5.676)"/>
    <path id="Path_12645" data-name="Path 12645" class="cls-12" d="M28.847,7.355a4.114,4.114,0,0,0-3.233-1.512A5.638,5.638,0,0,0,20.9,8.158h0s-.007.01-.007.01q-.069.133-.128.271c-.012.027-.02.056-.032.083a5.9,5.9,0,0,1,4.429-1.909A3.824,3.824,0,0,1,27.952,7.7a.918.918,0,0,0,.8.238c.814-.181,2.5.314,2.454,2.5,0,.12-.254,1.835-.378,2.676.011,0,.021,0,.032,0a.359.359,0,0,0,.356-.316s.442-2.975.446-3.134C31.72,7.049,29.278,6.862,28.847,7.355Z" transform="translate(-16.572 -5.677)"/>
    <g id="Group_14419" data-name="Group 14419">
      <path id="Path_12646" data-name="Path 12646" class="cls-5" d="M20.4,13.078a.454.454,0,0,1-.445-.356s-.282-.935-.487-1.75a4.609,4.609,0,0,1,.195-2.932q.062-.142.133-.281a.183.183,0,0,1,.013-.022.181.181,0,0,1,.016-.022,5.783,5.783,0,0,1,4.843-2.371A4.2,4.2,0,0,1,27.918,6.8a1.849,1.849,0,0,1,1.493,0,2.435,2.435,0,0,1,1.478,2.554c0,.162-.373,2.656-.448,3.155a.524.524,0,0,1-1.017.1l-.3-.941c-.635-1.892-2.453-1.77-3.866-1.335a17.563,17.563,0,0,1-3.385.744.967.967,0,0,0-.839.725l-.188.922a.451.451,0,0,1-.442.359Zm-.32-5.146q-.06.119-.112.239a4.272,4.272,0,0,0-.177,2.719c.2.808.483,1.738.486,1.747a.124.124,0,0,0,.24.015l.19-.931a1.3,1.3,0,0,1,1.132-.981,17.254,17.254,0,0,0,3.318-.732c2.2-.677,3.718-.127,4.28,1.549l.3.94a.191.191,0,0,0,.371-.041c.176-1.183.439-2.985.445-3.117A2.1,2.1,0,0,0,29.292,7.1a1.348,1.348,0,0,0-1.26.027.166.166,0,0,1-.12.057.148.148,0,0,1-.123-.049,3.948,3.948,0,0,0-3.115-1.463A5.5,5.5,0,0,0,20.1,7.908a.158.158,0,0,1-.018.024Z" transform="translate(-15.631 -5.344)"/>
      <path id="Path_12649" data-name="Path 12649" class="cls-5" d="M27.2,53.605H8.4a.166.166,0,0,1-.166-.166V51.41a6.835,6.835,0,0,1,6.48-6.721.17.17,0,0,1,.171.161.166.166,0,0,1-.161.171A6.5,6.5,0,0,0,8.562,51.41v1.862h18.47V51.41a6.479,6.479,0,0,0-6.123-6.388.166.166,0,0,1-.161-.171.162.162,0,0,1,.171-.161,6.816,6.816,0,0,1,6.445,6.721v2.029A.166.166,0,0,1,27.2,53.605Z" transform="translate(-8.229 -31.605)"/>
    </g>
  </g>
</svg>
