<svg xmlns="http://www.w3.org/2000/svg" width="28" height="28" viewBox="0 0 28 28">
  <defs>
    <style>
      .cls-1 {
        fill: none;
      }

      .cls-2 {
        fill: #d4e1f4;
      }

      .cls-3 {
        fill: #c1c5d1;
      }

      .cls-4 {
        fill: #afb4c1;
      }

      .cls-5 {
        fill: #ff9100;
      }

      .cls-6 {
        fill: #fff;
      }

      .cls-7 {
        fill: #333a60;
      }
    </style>
  </defs>
  <g id="Repairs_and_Services" data-name="Repairs and Services" transform="translate(-173 -285)">
    <g id="daily-needs-icn" transform="translate(173 285)">
      <path id="Rectangle_91" data-name="Rectangle 91" class="cls-1" d="M0,0H28V28H0Z"/>
    </g>
    <path id="Rectangle_27" data-name="Rectangle 27" class="cls-1" d="M0,0H28V28H0Z" transform="translate(173 285)"/>
    <g id="Group_13601" data-name="Group 13601" transform="translate(176.8 288.8)">
      <path id="Path_5670" data-name="Path 5670" class="cls-2" d="M512.9,489.113l.461.461,4.379-4.379,1.069-.379a.326.326,0,0,0,.172-.142l1.292-2.21a.325.325,0,0,0-.051-.394l-.734-.734a.325.325,0,0,0-.395-.051l-2.21,1.292a.328.328,0,0,0-.143.172l-.379,1.069-4.379,4.379.46.461Z" transform="translate(-500.679 -480.863)"/>
      <path id="Path_5671" data-name="Path 5671" class="cls-3" d="M487.894,490.639l-.886-.893s-4.512,1.583-5.9-2.867a4.763,4.763,0,0,1,0-2.379l1.736,1.583,2.2-.5.452-2.222-1.641-1.568s3.387-1.337,5.01,1.784a3.943,3.943,0,0,1,.309,3.955l10.589,10.63a1.63,1.63,0,0,1-.113,2.05,1.465,1.465,0,0,1-2.117,0Z" transform="translate(-480.511 -481.036)"/>
      <path id="Path_5672" data-name="Path 5672" class="cls-4" d="M489.549,495.351l-.387-.387a.33.33,0,0,0-.37-.067,4.018,4.018,0,0,1-5.319-2l-.033-.073-.082.014a.33.33,0,0,1-.291-.092l-1.291-1.3a3.984,3.984,0,0,0,1.106,3.578,4.026,4.026,0,0,0,4.5.814.33.33,0,0,1,.37.067l.972.972.665-.364a.986.986,0,0,1,.164-1.163Z" transform="translate(-481.008 -487.497)"/>
      <path id="Path_5673" data-name="Path 5673" class="cls-5" d="M491.923,508.076l-1.277,2.444-5.768,5.666s-.865.432-2.39-.887a2.491,2.491,0,0,1-.724-2.307l5.709-5.727,2.408-1.284Z" transform="translate(-481.008 -496.941)"/>
      <path id="Path_5674" data-name="Path 5674" class="cls-5" d="M509.568,501.088l-.8.866,1.642,1.652.892-.881Z" transform="translate(-498.591 -493.761)"/>
      <path id="Path_5675" data-name="Path 5675" class="cls-4" d="M517.722,519.516l-6.221-6.221a.976.976,0,0,1-1,.037l-.36.658,6.6,6.6a1.175,1.175,0,0,0,2-.745A1.174,1.174,0,0,1,517.722,519.516Z" transform="translate(-499.488 -501.693)"/>
      <path id="Path_5676" data-name="Path 5676" class="cls-6" d="M504.841,502.748l2.627,2.626s.432,1.143-.912.85l-2.611-2.68S503.805,502.64,504.841,502.748Z" transform="translate(-495.455 -494.834)"/>
      <path id="Path_5677" data-name="Path 5677" class="cls-7" d="M499.158,496.878l-6.938-6.939.547-.547a.431.431,0,0,0,0-.609l-1.661-1.661a.43.43,0,0,0-.609,0l-.548.548-1.111-1.112a4.716,4.716,0,0,0-5.9-6.148.43.43,0,0,0-.272.545.434.434,0,0,0,.1.168l1.574,1.574-.345,1.722-1.8.318-1.517-1.527a.427.427,0,0,0-.3-.127h0a.426.426,0,0,0-.3.125.421.421,0,0,0-.1.168,4.716,4.716,0,0,0,6.146,5.911l.522.522-.658.36a.417.417,0,0,0-.1.073l-5.3,5.294a2.033,2.033,0,0,0,0,2.868l.9.9a2.033,2.033,0,0,0,2.868,0l5.294-5.294a.424.424,0,0,0,.073-.1l.36-.657,6.349,6.349a1.916,1.916,0,0,0,1.358.559h.01a1.916,1.916,0,0,0,1.362-.571A1.936,1.936,0,0,0,499.158,496.878Zm-8.715-8.483.36-.36,1.052,1.052-.36.36Zm6.6,10.6-6.527-6.526.274-.5a1.077,1.077,0,0,0,1.477-.772l6.287,6.287A1.069,1.069,0,0,1,497.037,499Zm-12.257-14.122.449-2.237a.43.43,0,0,0-.118-.389l-1.191-1.191a3.824,3.824,0,0,1,3.234,1.1,3.891,3.891,0,0,1,.782,4.324.432.432,0,0,0,.087.483l.664.664a1.079,1.079,0,0,0-.771,1.478l-.5.274-.9-.9a.431.431,0,0,0-.305-.126.423.423,0,0,0-.178.039,3.892,3.892,0,0,1-4.324-.782,3.823,3.823,0,0,1-1.1-3.239l1.131,1.138a.437.437,0,0,0,.38.121l2.312-.409A.429.429,0,0,0,484.781,484.876Zm6.644,6.1a.218.218,0,0,1-.218.219.265.265,0,0,1-.155-.064l-2.294-2.295a.218.218,0,1,1,.307-.31l2.3,2.3h0A.215.215,0,0,1,491.424,490.977Zm-2.43,2.471-5.251,5.251a1.171,1.171,0,0,1-1.65,0l-.9-.9a1.17,1.17,0,0,1,0-1.65l5.251-5.251,2.039-1.116,1.63,1.631-.512.935,0-.007Z" transform="translate(-479.714 -480.166)"/>
      <path id="Path_5678" data-name="Path 5678" class="cls-7" d="M489.347,522.394a.325.325,0,0,0,.46,0h0l3.745-3.745a.326.326,0,0,0-.461-.461l-3.745,3.745a.325.325,0,0,0,0,.46Z" transform="translate(-485.912 -504.811)"/>
      <path id="Path_5679" data-name="Path 5679" class="cls-7" d="M486.7,519.606a.325.325,0,0,0,.23-.1l3.745-3.745a.326.326,0,0,0-.461-.461l-3.745,3.745a.325.325,0,0,0,.23.556Z" transform="translate(-484.039 -502.937)"/>
      <path id="Path_5680" data-name="Path 5680" class="cls-7" d="M520.006,481.773l-.735-.736a.432.432,0,0,0-.523-.067l-2.215,1.3a.431.431,0,0,0-.189.228l-.372,1.049-4.373,4.373-.075.074.611.61,4.515-4.515a.435.435,0,0,0,.1-.161l.352-.992,1.791-1.048.265.265-1.048,1.792-.992.352a.434.434,0,0,0-.161.1l-4.442,4.442-.075.074.611.61,4.447-4.447,1.048-.372a.429.429,0,0,0,.228-.189l1.3-2.215A.432.432,0,0,0,520.006,481.773Z" transform="translate(-500.384 -480.65)"/>
    </g>
  </g>
</svg>
