<svg xmlns="http://www.w3.org/2000/svg" width="28" height="28" viewBox="0 0 28 28">
    <defs>
        <style>
            .cls-1{fill:none}.cls-2{fill:#27ccbc}.cls-4{fill:#fcd462}.cls-5{fill:#f7be56}.cls-6,.cls-9{fill:#323c6b}.cls-6{stroke:#323c6b;stroke-width:.4px}
        </style>
    </defs>
    <g id="loan" transform="translate(-102 -285)">
        <path id="Rectangle_6234" d="M0 0h28v28H0z" class="cls-1" transform="translate(102 285)"/>
        <g id="Group_13184" transform="translate(102 285)">
            <g id="daily-needs-icn">
                <path id="Rectangle_91" d="M0 0h28v28H0z" class="cls-1"/>
            </g>
            <path id="Rectangle_27" d="M0 0h28v28H0z" class="cls-1"/>
        </g>
        <g id="Group_14417" transform="translate(104.8 286.867)">
            <g id="money-bag_1_">
                <path id="Path_12543" d="M21.862 33.527c-2.584 3.709-15.5 3.709-18.085 0-2.755-3.956 6.681-15.267 6.681-15.267h4.722s9.437 11.311 6.682 15.267z" class="cls-2" transform="translate(-3.108 -12.777)"/>
                <path id="Path_12544" fill="#21b3a9" d="M25.422 33.349c-.037.06-.073.12-.113.177a6.389 6.389 0 0 1-3.5 2.073c-4.122 1.2-10.39.881-13.361-.968a21.409 21.409 0 0 0 12.133-.04v-.658a.585.585 0 0 1 .584-.584h-.7a.585.585 0 0 1-.584-.584v-1.078a.585.585 0 0 1 .584-.584h.965a.585.585 0 0 1-.584-.584v-1.081a.585.585 0 0 1 .584-.584h2.256a.859.859 0 0 1-.027-.087 3.312 3.312 0 0 1-2.193-4.726 55.817 55.817 0 0 0-3.982-5.778h1.146a58.03 58.03 0 0 1 3.548 4.84 29.787 29.787 0 0 1 3.007 5.661c.013.03.023.06.033.09a9.716 9.716 0 0 1 .561 2.25 3.663 3.663 0 0 1-.357 2.245z" transform="translate(-6.557 -12.779)"/>
                <circle id="Ellipse_866" cx="3.714" cy="3.714" r="3.714" class="cls-4" transform="translate(5.998 12.02)"/>
                <path id="Path_12545" d="M29.809 42.917a3.713 3.713 0 0 1-6.609 2.326 3.715 3.715 0 0 0 5.04-5.36 3.719 3.719 0 0 1 1.569 3.034z" class="cls-5" transform="translate(-16.384 -27.183)"/>
                <path id="Path_12549" d="M12.49 36.141c-3.317 0-7.712-.747-9.179-2.854-2.8-4.013 6.3-15 6.69-15.468a.167.167 0 0 1 .128-.06h4.722a.167.167 0 0 1 .128.06c.389.467 9.486 11.455 6.69 15.468l-.137-.094.137.1c-1.469 2.101-5.861 2.848-9.179 2.848zm-2.282-18.048c-.731.892-9.174 11.343-6.624 15 1.147 1.647 4.643 2.711 8.906 2.711s7.759-1.061 8.91-2.704c2.551-3.661-5.893-14.111-6.624-15z" class="cls-6" transform="translate(-2.779 -12.443)"/>
                <path id="Path_12550" d="M24.916 7.649H19.9l-2.236-5.316 2.342.5 2.4-.5 2.224.82 2.52-.82z" class="cls-2" transform="translate(-12.696 -2.166)"/>
                <path id="Path_12551" d="M24.581 7.482h-5.018a.167.167 0 0 1-.154-.1l-2.235-5.318a.167.167 0 0 1 .025-.171.165.165 0 0 1 .164-.057l2.307.492 2.367-.493a.167.167 0 0 1 .092.007l2.17.8 2.464-.8a.167.167 0 0 1 .206.223L24.735 7.38a.167.167 0 0 1-.154.1zm-4.906-.334h4.8l2.049-4.877-2.172.707a.167.167 0 0 1-.109 0l-2.179-.8-2.354.49a.164.164 0 0 1-.069 0l-2.028-.433z" class="cls-6" transform="translate(-12.361 -1.832)"/>
                <rect id="Rectangle_15777" width="7.427" height="1.87" fill="#fff" rx=".935" transform="translate(5.998 4.784)"/>
                <path id="Path_12552" fill="#ebebee" d="M39.3 17.1a.935.935 0 0 1-.935.938h-.915a.936.936 0 0 0 0-1.872h.918a.937.937 0 0 1 .932.934z" transform="translate(-25.878 -11.38)"/>
                <circle id="Ellipse_867" cx="3.313" cy="3.313" r="3.313" class="cls-4" transform="translate(15.346 9.449)"/>
                <rect id="Rectangle_15778" width="7.148" height="2.248" class="cls-4" rx="1.124" transform="translate(14.825 20.571)"/>
                <rect id="Rectangle_15779" width="7.148" height="2.248" class="cls-4" rx="1.124" transform="translate(14.122 18.324)"/>
                <rect id="Rectangle_15780" width="7.148" height="2.248" class="cls-4" rx="1.124" transform="translate(15.085 16.076)"/>
                <path id="Path_12554" d="M57.446 33.457a3.3 3.3 0 0 1-1.762 2.924 3.311 3.311 0 0 0-3.832-5.327 3.312 3.312 0 0 1 5.594 2.4z" class="cls-5" transform="translate(-35.473 -20.694)"/>
                <path id="Path_12555" d="M55.121 50.577v1.081a.585.585 0 0 1-.584.584h.014V51.1a.585.585 0 0 0-.584-.584h-5.995v.062a.587.587 0 0 1 .584-.584h5.981a.585.585 0 0 1 .584.584z" class="cls-5" transform="translate(-32.888 -33.918)"/>
                <path id="Path_12556" d="M52.236 57.312v1.081a.585.585 0 0 1-.584.584h.014v-1.143a.585.585 0 0 0-.584-.584h-6v.062a.587.587 0 0 1 .584-.584h5.981a.585.585 0 0 1 .589.584z" class="cls-5" transform="translate(-30.966 -38.405)"/>
                <path id="Path_12557" d="M54.342 64.046v1.081a.585.585 0 0 1-.584.584h.012v-1.143a.585.585 0 0 0-.584-.584h-5.993v.062a.587.587 0 0 1 .584-.584h5.981a.585.585 0 0 1 .584.584z" class="cls-5" transform="translate(-32.369 -42.892)"/>
                <g id="Group_14416" transform="translate(5.831 4.619)">
                    <path id="Path_12558" d="M51.1 52.839a.167.167 0 0 1-.167-.167v-.72a.167.167 0 1 1 .334 0v.72a.167.167 0 0 1-.167.167z" class="cls-9" transform="translate(-40.692 -39.732)"/>
                    <path id="Path_12559" d="M54.725 52.839a.167.167 0 0 1-.167-.167v-.72a.167.167 0 1 1 .334 0v.72a.167.167 0 0 1-.167.167z" class="cls-9" transform="translate(-43.107 -39.732)"/>
                    <path id="Path_12560" d="M58.35 52.839a.167.167 0 0 1-.167-.167v-.72a.167.167 0 0 1 .334 0v.72a.167.167 0 0 1-.167.167z" class="cls-9" transform="translate(-45.522 -39.732)"/>
                    <path id="Path_12561" d="M61.975 52.839a.167.167 0 0 1-.167-.167v-.72a.167.167 0 1 1 .334 0v.72a.167.167 0 0 1-.167.167z" class="cls-9" transform="translate(-47.937 -39.732)"/>
                    <path id="Path_12562" d="M65.6 52.839a.167.167 0 0 1-.167-.167v-.72a.167.167 0 0 1 .334 0v.72a.167.167 0 0 1-.167.167z" class="cls-9" transform="translate(-50.352 -39.732)"/>
                    <path id="Path_12563" d="M48.214 59.574a.167.167 0 0 1-.167-.167v-.719a.167.167 0 1 1 .334 0v.72a.167.167 0 0 1-.167.166z" class="cls-9" transform="translate(-38.769 -44.219)"/>
                    <path id="Path_12564" d="M51.839 59.574a.167.167 0 0 1-.167-.167v-.719a.167.167 0 1 1 .334 0v.72a.167.167 0 0 1-.167.166z" class="cls-9" transform="translate(-41.184 -44.219)"/>
                    <path id="Path_12565" d="M55.467 59.574a.167.167 0 0 1-.167-.167v-.719a.167.167 0 1 1 .334 0v.72a.167.167 0 0 1-.167.166z" class="cls-9" transform="translate(-43.601 -44.219)"/>
                    <path id="Path_12566" d="M59.089 59.574a.167.167 0 0 1-.167-.167v-.719a.167.167 0 1 1 .334 0v.72a.167.167 0 0 1-.167.166z" class="cls-9" transform="translate(-46.014 -44.219)"/>
                    <path id="Path_12567" d="M62.714 59.574a.167.167 0 0 1-.167-.167v-.719a.167.167 0 1 1 .334 0v.72a.167.167 0 0 1-.167.166z" class="cls-9" transform="translate(-48.43 -44.219)"/>
                    <path id="Path_12568" d="M50.32 66.308a.167.167 0 0 1-.167-.167v-.72a.167.167 0 1 1 .334 0v.72a.167.167 0 0 1-.167.167z" class="cls-9" transform="translate(-40.172 -48.705)"/>
                    <path id="Path_12569" d="M53.945 66.308a.167.167 0 0 1-.167-.167v-.72a.167.167 0 0 1 .334 0v.72a.167.167 0 0 1-.167.167z" class="cls-9" transform="translate(-42.587 -48.705)"/>
                    <path id="Path_12570" d="M57.567 66.308a.167.167 0 0 1-.167-.167v-.72a.167.167 0 0 1 .334 0v.72a.167.167 0 0 1-.167.167z" class="cls-9" transform="translate(-45 -48.705)"/>
                    <path id="Path_12571" d="M61.195 66.308a.167.167 0 0 1-.167-.167v-.72a.167.167 0 0 1 .334 0v.72a.167.167 0 0 1-.167.167z" class="cls-9" transform="translate(-47.418 -48.705)"/>
                    <path id="Path_12572" d="M64.82 66.308a.167.167 0 0 1-.167-.167v-.72a.167.167 0 1 1 .334 0v.72a.167.167 0 0 1-.167.167z" class="cls-9" transform="translate(-49.833 -48.705)"/>
                    <path id="Path_12575" d="M54.206 52.078h-5.979a.752.752 0 0 1-.751-.751v-1.079a.752.752 0 0 1 .751-.751h5.979a.752.752 0 0 1 .751.751v1.079a.752.752 0 0 1-.751.751zm-5.979-2.247a.418.418 0 0 0-.417.417v1.079a.418.418 0 0 0 .417.417h5.979a.418.418 0 0 0 .417-.417v-1.08a.418.418 0 0 0-.417-.417z" class="cls-6" transform="translate(-38.389 -38.207)"/>
                    <path id="Path_12576" d="M51.319 58.812H45.34a.752.752 0 0 1-.751-.751v-1.079a.752.752 0 0 1 .751-.751h5.979a.752.752 0 0 1 .75.751v1.079a.752.752 0 0 1-.75.751zm-5.979-2.247a.418.418 0 0 0-.417.417v1.079a.418.418 0 0 0 .417.417h5.979a.418.418 0 0 0 .416-.417v-1.079a.418.418 0 0 0-.417-.417z" class="cls-6" transform="translate(-36.465 -42.693)"/>
                    <path id="Path_12577" d="M53.425 65.547h-5.979a.752.752 0 0 1-.746-.747v-1.08a.752.752 0 0 1 .751-.751h5.979a.752.752 0 0 1 .751.751v1.08a.752.752 0 0 1-.756.747zM47.446 63.3a.418.418 0 0 0-.417.417V64.8a.418.418 0 0 0 .417.417h5.979a.418.418 0 0 0 .417-.417v-1.08a.418.418 0 0 0-.417-.417z" class="cls-6" transform="translate(-37.868 -47.179)"/>
                    <path id="Path_12578" d="M51.736 36.606a3.48 3.48 0 1 1 3.48-3.481 3.48 3.48 0 0 1-3.48 3.481zm0-6.627a3.146 3.146 0 1 0 3.146 3.146 3.146 3.146 0 0 0-3.146-3.146z" class="cls-6" transform="translate(-38.908 -24.981)"/>
                    <path id="Path_12579" d="M26.909 17.873h-5.558a1.1 1.1 0 0 1 0-2.2h5.557a1.1 1.1 0 1 1 0 2.2zM21.352 16a.768.768 0 1 0 0 1.535h5.557a.768.768 0 1 0 0-1.535z" class="cls-6" transform="translate(-20.25 -15.67)"/>
                </g>
                <path id="Path_12582" d="M24.129 45.109a3.88 3.88 0 1 1 3.88-3.881 3.88 3.88 0 0 1-3.88 3.881zm0-7.427a3.547 3.547 0 1 0 3.546 3.546 3.547 3.547 0 0 0-3.546-3.546z" class="cls-6" transform="translate(-14.417 -25.494)"/>
            </g>
            <path id="Path_12519" fill="#323c6b" stroke="rgba(0,0,0,0)" d="M11454.036 10520.157l-1.416-1.36a.269.269 0 0 1-.066-.27.253.253 0 0 1 .237-.171h.572a.6.6 0 0 0 .555-.365h-1.127a.231.231 0 0 1-.237-.238.255.255 0 0 1 .237-.266h1.127a.6.6 0 0 0-.555-.366h-.572a.239.239 0 0 1 0-.479h1.987a.263.263 0 0 1 .2.093.181.181 0 0 1 .038.152.236.236 0 0 1-.24.233h-.5a1.042 1.042 0 0 1 .163.366h.341a.259.259 0 0 1 .24.266.232.232 0 0 1-.24.238h-.341a1.063 1.063 0 0 1-.363.618 1.1 1.1 0 0 1-.675.254l.974.949a.176.176 0 0 1 .077.139.248.248 0 0 1-.075.206.259.259 0 0 1-.168.067.274.274 0 0 1-.173-.066z" transform="translate(-11443.942 -10502.538)"/>
        </g>
    </g>
</svg>
