<svg xmlns="http://www.w3.org/2000/svg" width="28" height="28" viewBox="0 0 28 28">
    <defs>
        <style>
            .cls-4{fill:#333a60;stroke:#333a60;stroke-width:.4px}.cls-5{fill:#e93234}
        </style>
    </defs>
    <g id="Real_Estate" transform="translate(-23 -359)">
        <g id="home_1_" transform="translate(25.799 362.733)">
            <path id="Path_12410" fill="#ffd167" d="M33.336 34.056H16.22V21.812l8.558-6.578 8.558 6.578z" transform="translate(-13.315 -13.702)"/>
            <path id="Path_12411" fill="#efb736" d="M33.337 21.812v2.8l-8.559-6.578-8.557 6.578v-2.8l8.557-6.578z" transform="translate(-13.316 -13.702)"/>
            <path id="Path_12412" d="M32.515 33.413H15.4a.179.179 0 0 1-.179-.179V20.991a.179.179 0 0 1 .07-.142l8.558-6.579a.179.179 0 0 1 .218 0l8.558 6.579a.179.179 0 0 1 .07.142v12.243a.179.179 0 0 1-.18.179zm-16.937-.358h16.758V21.079l-8.379-6.44-8.379 6.44z" class="cls-4" transform="translate(-12.494 -12.88)"/>
            <path id="Path_12413" d="M23.568 16.865L12.284 7.681 1 16.865l1.255 1.541 10.03-8.163 10.03 8.163z" class="cls-5" transform="translate(-.821 -7.502)"/>
            <path id="Path_12414" d="M21.5 17.764a.179.179 0 0 1-.113-.04l-9.921-8.071-9.917 8.071A.179.179 0 0 1 1.3 17.7L.044 16.157a.179.179 0 0 1 .026-.252l11.284-9.184a.179.179 0 0 1 .226 0l11.284 9.184a.179.179 0 0 1 .026.252L21.636 17.7a.179.179 0 0 1-.121.065H21.5zM11.466 9.243a.179.179 0 0 1 .113.04l9.891 8.05 1.03-1.263-11.034-8.98L.434 16.069l1.028 1.263 9.891-8.05a.179.179 0 0 1 .113-.04z" class="cls-4" transform="translate(-.003 -6.68)"/>
            <path id="Path_12415" d="M46.324 60.134c-1.414-1.886-3.445-.181-3.554-.145-.109-.036-2.14-1.741-3.554.145s.906 4.97 3.554 6.457c2.648-1.491 4.969-4.571 3.554-6.457z" class="cls-5" transform="translate(-31.309 -49.339)"/>
            <path id="Path_12416" fill="#bf161c" d="M61.573 66.615q-.229-.129-.455-.274c2.567-1.525 4.746-4.507 3.365-6.348a2.242 2.242 0 0 0-.845-.718 2 2 0 0 1 1.489.882c1.415 1.887-.906 4.97-3.554 6.458z" transform="translate(-50.112 -49.362)"/>
            <path id="Path_12417" d="M41.92 65.9l-.077-.043c-2.014-1.131-3.656-3.043-3.995-4.649a2.425 2.425 0 0 1 .392-2.041c.62-.827 1.761-1.54 3.677-.24 1.916-1.3 3.057-.587 3.677.24a2.428 2.428 0 0 1 .391 2.041c-.338 1.606-1.981 3.518-3.995 4.649zm-1.933-7.37a1.827 1.827 0 0 0-1.5.827 2.124 2.124 0 0 0-.335 1.785 7.794 7.794 0 0 0 3.763 4.4 7.794 7.794 0 0 0 3.763-4.395 2.123 2.123 0 0 0-.335-1.785c-.782-1.043-1.874-1.1-3.247-.168a.584.584 0 0 1-.131.078l-.05.016-.05-.017a.584.584 0 0 1-.131-.078 3.218 3.218 0 0 0-1.747-.662z" class="cls-4" transform="translate(-30.458 -48.469)"/>
        </g>
    </g>
</svg>
