<svg xmlns="http://www.w3.org/2000/svg" width="28" height="28" viewBox="0 0 28 28">
  <g id="Education" transform="translate(-23 -359)">
    <rect id="Rectangle_8759" data-name="Rectangle 8759" width="28" height="28" transform="translate(23 359)" fill="#e5e5e5" opacity="0"/>
    <g id="graduation-cap" transform="translate(25.14 322.18)">
      <g id="Layer_2_1_" transform="translate(0.523 42.122)">
        <g id="Group_15123" data-name="Group 15123" transform="translate(0 0)">
          <path id="Path_14357" data-name="Path 14357" d="M20.4,58.789l10.077-4.861s.095-1.059-.813-1.287S20.4,48.2,20.4,48.2a5.666,5.666,0,0,0-2.506,0L8.167,52.835s-.542.644-.251,1.093l10.369,4.861A5.68,5.68,0,0,0,20.4,58.789Z" transform="translate(-7.828 -48.041)" fill="#5effbd"/>
          <path id="Path_14358" data-name="Path 14358" d="M71.948,166.038l2.648-.771L79.1,162.9v5.7s-1.28,3.185-7.407,3.527c0,0-3.527.483-7.5-3.332l.143-5.886Z" transform="translate(-60.419 -155.017)" fill="#5effbd"/>
          <g id="Group_15121" data-name="Group 15121" transform="translate(3.829 7.883)">
            <path id="Path_14359" data-name="Path 14359" d="M65.869,163.577v6.543L64.3,168.793l.141-5.893Z" transform="translate(-64.3 -162.9)" fill="#48e4a4"/>
          </g>
          <g id="Group_15122" data-name="Group 15122">
            <path id="Path_14360" data-name="Path 14360" d="M20.2,48.657l-9.762,4.418a.438.438,0,0,0,0,.8L20.2,58.291l-.556.55-2.32-.329L8.35,54.161l-.55-.684.845-.912,9.507-4.492,1.3-.074.751.657" transform="translate(-7.8 -48)" fill="#48e4a4"/>
          </g>
        </g>
      </g>
      <g id="Capa_1" transform="translate(0 41.7)">
        <path id="Path_14361" data-name="Path 14361" d="M2.491,53.368v-3.86l1.435.711v5.634a.437.437,0,0,0,.081.244,9.833,9.833,0,0,0,7.8,3.6,9.777,9.777,0,0,0,7.771-3.6.437.437,0,0,0,.081-.244V50.246l3.2-1.571a1.162,1.162,0,0,0,.785-1.029,1.211,1.211,0,0,0-.785-1.036L13.431,42a3.858,3.858,0,0,0-3.006,0l-9.64,4.6A1.162,1.162,0,0,0,0,47.646c0,.244.108.677.785,1.029l.785.379v4.321Zm16.3,2.343a9.054,9.054,0,0,1-6.986,3.142A9.054,9.054,0,0,1,4.82,55.711v-5.12l5.605,2.682a3.651,3.651,0,0,0,1.489.3,3.3,3.3,0,0,0,1.516-.325l5.361-2.628Zm3.683-7.795-9.423,4.6a3.005,3.005,0,0,1-2.275,0l-7.23-3.474,8.313-.975a.422.422,0,0,0-.081-.84L2.139,48.37l-.975-.46a.546.546,0,0,1-.3-.244c0-.027.054-.135.3-.244L10.8,42.79a2.8,2.8,0,0,1,1.11-.217,2.744,2.744,0,0,1,1.137.217l9.423,4.6c.244.108.3.217.3.271A.788.788,0,0,1,22.475,47.917Z" transform="translate(0 -41.7)" fill="#333a60"/>
        <path id="Path_14362" data-name="Path 14362" d="M6.936,207a1.636,1.636,0,1,0,1.636,1.636A1.634,1.634,0,0,0,6.936,207Z" transform="translate(-4.945 -195.781)" fill="#333a60"/>
        <circle id="Ellipse_967" data-name="Ellipse 967" cx="0.932" cy="0.932" r="0.932" transform="translate(1.059 11.939)" fill="#ffd064"/>
        <path id="Path_14363" data-name="Path 14363" d="M29.7,219.537a.918.918,0,1,0,0-1.837l.013.013a1.365,1.365,0,0,1-.013,1.857h0" transform="translate(-27.709 -205.767)" fill="#f2ab08"/>
      </g>
    </g>
  </g>
</svg>
