<svg xmlns="http://www.w3.org/2000/svg" width="28" height="28" viewBox="0 0 28 28">
  <defs>
    <style>
      .cls-1 {
        opacity: 0.9;
      }

      .cls-2 {
        fill: #2981c6;
      }

      .cls-3 {
        fill: #fff;
      }

      .cls-4, .cls-5 {
        stroke: none;
      }

      .cls-5 {
        fill: #2981c6;
      }
    </style>
  </defs>
  <g id="Show_More" data-name="Show More" class="cls-1" transform="translate(24 -93.478) rotate(90)">
    <g id="Path_12879" data-name="Path 12879" class="cls-2" transform="translate(93.478 24) rotate(-90)">
      <path class="cls-4" d="M 14 27.5 C 10.39402008056641 27.5 7.003870010375977 26.09576034545898 4.454060077667236 23.54594039916992 C 1.904240012168884 20.99612998962402 0.5 17.60597991943359 0.5 14 C 0.5 10.39402008056641 1.904240012168884 7.003870010375977 4.454060077667236 4.454060077667236 C 7.003870010375977 1.904240012168884 10.39402008056641 0.5 14 0.5 C 17.60597991943359 0.5 20.99612998962402 1.904240012168884 23.54594039916992 4.454060077667236 C 26.09576034545898 7.003870010375977 27.5 10.39402008056641 27.5 14 C 27.5 17.60597991943359 26.09576034545898 20.99612998962402 23.54594039916992 23.54594039916992 C 20.99612998962402 26.09576034545898 17.60597991943359 27.5 14 27.5 Z"/>
      <path class="cls-5" d="M 14 1 C 10.5275707244873 1 7.262990951538086 2.352239608764648 4.807609558105469 4.807609558105469 C 2.352239608764648 7.262990951538086 1 10.5275707244873 1 14 C 1 17.47241973876953 2.352239608764648 20.73701095581055 4.807609558105469 23.19239044189453 C 7.262990951538086 25.64776039123535 10.5275707244873 27 14 27 C 17.47241973876953 27 20.73701095581055 25.64776039123535 23.19239044189453 23.19239044189453 C 25.64776039123535 20.73701095581055 27 17.47241973876953 27 14 C 27 10.5275707244873 25.64776039123535 7.262990951538086 23.19239044189453 4.807609558105469 C 20.73701095581055 2.352239608764648 17.47241973876953 1 14 1 M 14 0 C 21.73197937011719 0 28 6.268009185791016 28 14 C 28 21.73197937011719 21.73197937011719 28 14 28 C 6.268009185791016 28 0 21.73197937011719 0 14 C 0 6.268009185791016 6.268009185791016 0 14 0 Z"/>
    </g>
    <path id="Path_12880" data-name="Path 12880" class="cls-3" d="M108.718,5.84,103.081.2a.694.694,0,0,0-.98,0l-.415.415a.694.694,0,0,0,0,.98l4.734,4.734L101.68,11.07a.695.695,0,0,0,0,.98l.415.415a.694.694,0,0,0,.98,0l5.643-5.642a.7.7,0,0,0,0-.983Z" transform="translate(3.154 3.666)"/>
  </g>
</svg>
