<svg xmlns="http://www.w3.org/2000/svg" width="28" height="28" viewBox="0 0 28 28">
  <defs>
    <style>
      .cls-1 {
        fill: none;
      }

      .cls-2 {
        fill: #d4e1f4;
      }

      .cls-3 {
        fill: #27ccbc;
      }

      .cls-4 {
        fill: #333a60;
      }

      .cls-5 {
        fill: #fff;
      }
    </style>
  </defs>
  <g id="Find_Doctors" data-name="Find Doctors" transform="translate(-173 -285)">
    <g id="daily-needs-icn" transform="translate(173 285)">
      <path id="Rectangle_91" data-name="Rectangle 91" class="cls-1" d="M0,0H28V28H0Z"/>
    </g>
    <path id="Rectangle_27" data-name="Rectangle 27" class="cls-1" d="M0,0H28V28H0Z" transform="translate(173 285)"/>
    <g id="Group_13584" data-name="Group 13584" transform="translate(176.693 289.267)">
      <path id="Path_4946" data-name="Path 4946" class="cls-2" d="M251.71,360.392V348.871a1.836,1.836,0,0,1,1.837-1.837h-1.377a1.836,1.836,0,0,0-1.836,1.837v11.522a1.836,1.836,0,0,0,1.836,1.837h1.377A1.836,1.836,0,0,1,251.71,360.392Z" transform="translate(-249.894 -343.607)"/>
      <path id="Path_4947" data-name="Path 4947" class="cls-3" d="M266.913,345.7h-15.8a2.2,2.2,0,0,0-2.1,2.278V359.5a2.2,2.2,0,0,0,2.1,2.278h15.8a2.2,2.2,0,0,0,2.1-2.278V347.979A2.2,2.2,0,0,0,266.913,345.7Z" transform="translate(-249.012 -342.717)"/>
      <g id="Group_13583" data-name="Group 13583" transform="translate(5.625)">
        <path id="Path_4948" data-name="Path 4948" class="cls-4" d="M273.989,337.27a1.84,1.84,0,0,0-1.307-.552h-4.889a1.855,1.855,0,0,0-1.846,1.864v1.73l.883,0v-1.731a.967.967,0,0,1,.963-.979h4.881a.967.967,0,0,1,.964.981v1.73l.883,0v-1.727A1.839,1.839,0,0,0,273.989,337.27Zm-1.315-.387Z" transform="translate(-265.947 -336.717)"/>
      </g>
      <path id="Path_4949" data-name="Path 4949" class="cls-4" d="M266.913,345.7h-15.8a2.2,2.2,0,0,0-2.1,2.278V359.5a2.2,2.2,0,0,0,2.1,2.278h15.8a2.2,2.2,0,0,0,2.1-2.278V347.979A2.2,2.2,0,0,0,266.913,345.7Zm1.263,2.279V359.5a1.335,1.335,0,0,1-1.26,1.394h-.971V346.584h.971A1.337,1.337,0,0,1,268.176,347.98ZM252.5,351a.431.431,0,0,0-.418.442V360.9h-.971a1.335,1.335,0,0,1-1.261-1.394V347.98a1.337,1.337,0,0,1,1.26-1.4h.971v2.726a.419.419,0,1,0,.836,0v-2.726h12.191V360.9H252.916v-9.451A.431.431,0,0,0,252.5,351Z" transform="translate(-249.012 -342.717)"/>
      <path id="Path_4950" data-name="Path 4950" class="cls-5" d="M276.8,364.105h-1.439v-1.439a.312.312,0,0,0-.312-.312H274.02a.312.312,0,0,0-.311.312v1.439h-1.439a.312.312,0,0,0-.312.311v1.03a.312.312,0,0,0,.312.311h1.439V367.2a.312.312,0,0,0,.311.312h1.029a.312.312,0,0,0,.312-.312v-1.439H276.8a.312.312,0,0,0,.312-.311v-1.03A.312.312,0,0,0,276.8,364.105Z" transform="translate(-264.337 -353.839)"/>
    </g>
  </g>
</svg>
