<svg xmlns="http://www.w3.org/2000/svg" width="28" height="28" viewBox="0 0 28 28">
  <defs>
    <style>
      .cls-1 {
        fill: #e5e5e5;
        opacity: 0;
      }

      .cls-2 {
        fill: none;
      }

      .cls-3 {
        fill: #e5f5fd;
      }

      .cls-4 {
        fill: #b9c8db;
      }

      .cls-5 {
        fill: #72bcef;
      }

      .cls-6 {
        fill: #67b5f4;
      }

      .cls-7 {
        fill: #50a6ea;
      }

      .cls-8 {
        fill: #333a60;
        stroke: #333a60;
        stroke-width: 0.2px;
      }

      .cls-9 {
        fill: #d6d7df;
      }
    </style>
  </defs>
  <g id="Travel_Bookings" data-name="Travel Bookings" transform="translate(-23 -359)">
    <rect id="Rectangle_8759" data-name="Rectangle 8759" class="cls-1" width="28" height="28" transform="translate(23 359)"/>
    <g id="Flights" transform="translate(23 359)">
      <path id="Rectangle_91" data-name="Rectangle 91" class="cls-2" d="M0,0H28V28H0Z"/>
      <g id="daily-needs-icn">
        <path id="Rectangle_91-2" data-name="Rectangle 91" class="cls-2" d="M0,0H28V28H0Z"/>
        <g id="Group_14772" data-name="Group 14772" transform="translate(-1)">
          <g id="flight_1_" data-name="flight (1)" transform="translate(-8.001 -115.793)">
            <path id="Path_13238" data-name="Path 13238" class="cls-3" d="M40.523,128.2a6.34,6.34,0,0,0-5.368.351l-11.919,6.274-2.821-2.085a3.184,3.184,0,0,0-3.154-.385l-1.26.533,4.924,4.273a3.266,3.266,0,0,0,2.239.826,1.625,1.625,0,0,0,.6-.116l4.936-2.032.022.009.428-1.208,5.273-2.226-.665,1.228,6.8-2.878a1.407,1.407,0,0,0-.033-2.563Z" transform="translate(-5.682 -5.631)"/>
            <path id="Path_13239" data-name="Path 13239" class="cls-4" d="M17.26,133.481a3.184,3.184,0,0,1,3.154.385l2.5,1.849a.624.624,0,0,0,.667.053l4.932-2.6,3.281-1.727,3.357-1.767a6.34,6.34,0,0,1,5.368-.351,1.29,1.29,0,0,1,.732.724,1.481,1.481,0,0,0,.111-.565,1.35,1.35,0,0,0-.843-1.289,6.34,6.34,0,0,0-5.368.351L31.8,130.315l-3.281,1.727-5.28,2.779-2.821-2.085a3.184,3.184,0,0,0-3.154-.385l-1.26.533.875.76Z" transform="translate(-5.682 -5.631)"/>
            <path id="Path_13240" data-name="Path 13240" class="cls-5" d="M176.788,133.136l-3.281,1.727-4.426-3.05,1.635-1.063Z" transform="translate(-150.672 -8.452)"/>
            <path id="Path_13241" data-name="Path 13241" class="cls-6" d="M175.409,143.1l-5.589-2.541-.74.508,4.426,3.05Z" transform="translate(-150.672 -17.708)"/>
            <path id="Path_13242" data-name="Path 13242" class="cls-7" d="M174.775,146.272l-5.219-2.711-.476.339,4.426,3.05Z" transform="translate(-150.672 -20.539)"/>
            <path id="Path_13243" data-name="Path 13243" class="cls-5" d="M221.807,210.051l-.665,1.228-4.665,8.614H213.84l2.266-6.407.428-1.208Z" transform="translate(-193.067 -83.272)"/>
            <path id="Path_13244" data-name="Path 13244" class="cls-6" d="M220.436,235.451l-1.9.791-.428,1.209-2.266,6.407h1Z" transform="translate(-194.961 -107.237)"/>
            <path id="Path_13245" data-name="Path 13245" class="cls-7" d="M219.485,242.451l-.951.4-.428,1.208-2.266,6.407h.476Z" transform="translate(-194.961 -113.841)"/>
            <path id="Path_13246" data-name="Path 13246" class="cls-8" d="M34.95,122.247a6.658,6.658,0,0,0-5.617.366l-3.235,1.7-5.946-2.335a.3.3,0,0,0-.274.029l-1.634,1.063a.352.352,0,0,0-.007.575l3.955,2.725-4.61,2.427-2.668-1.972a3.477,3.477,0,0,0-3.451-.422l-1.261.534a.335.335,0,0,0-.2.264.351.351,0,0,0,.114.315l4.923,4.273a3.582,3.582,0,0,0,2.342.9l.107,0a1.925,1.925,0,0,0,.7-.139l4.3-1.772-2.023,5.72a.359.359,0,0,0,.036.313.312.312,0,0,0,.261.146H23.41a.314.314,0,0,0,.274-.169l4.61-8.512,6.7-2.834a1.755,1.755,0,0,0-.041-3.2Zm-15.944,1.122,1.071-.7,5.235,2.056-2.456,1.293Zm4.221,12.912H21.232l2.482-7.016,4.3-1.813Zm11.53-11.468-5.95,2.519.208-.383a.358.358,0,0,0-.034-.391.3.3,0,0,0-.357-.094L23.35,128.69a.329.329,0,0,0-.18.2l-.37,1.046-4.836,1.991a1.337,1.337,0,0,1-.493.093,2.96,2.96,0,0,1-2.03-.751l-4.5-3.908.757-.32a2.879,2.879,0,0,1,2.857.349l2.821,2.085a.3.3,0,0,0,.32.025l11.923-6.276a6.061,6.061,0,0,1,5.115-.335,1.059,1.059,0,0,1,.025,1.93Z" transform="translate(0 0)"/>
          </g>
          <rect id="Rectangle_15843" data-name="Rectangle 15843" class="cls-9" width="18" height="1" rx="0.5" transform="translate(2 24)"/>
        </g>
      </g>
    </g>
  </g>
</svg>
