<svg id="Consultants" xmlns="http://www.w3.org/2000/svg" width="28.321" height="28" viewBox="0 0 28.321 28">
  <path id="Rectangle_91" data-name="Rectangle 91" d="M0,0H28V28H0Z" fill="none"/>
  <g id="Group_14886" data-name="Group 14886" transform="translate(-184 -752)">
    <g id="consultant" transform="translate(174.315 705.012)">
      <path id="Path_13403" data-name="Path 13403" d="M391.449,200.86l2.989,4.557H388.46Z" transform="translate(-356.764 -143.418)" fill="#6fe3ff"/>
      <path id="Path_13404" data-name="Path 13404" d="M309.272,310.16v3.125H307.11V310.16a1.953,1.953,0,0,1,1.073-1.585l0-.005.014.005A1.953,1.953,0,0,1,309.272,310.16Z" transform="translate(-280.161 -244.959)" fill="#6698e4"/>
      <path id="Path_13405" data-name="Path 13405" d="M184.93,142.428a.944.944,0,0,1,.027.222.933.933,0,0,1-.769.918v.006a3.661,3.661,0,0,1-7.322,0v-.006a2.091,2.091,0,0,1-.33-.126.933.933,0,0,1-.414-1.014.7.7,0,0,1,.628-.535l.925.633,0-.178a4.866,4.866,0,0,1,.505-2.229l.189-.26c1.17.62,2.573,1.443,4.134.68a1.33,1.33,0,0,1,1.069,1.216l.042.647.694-.536,0,.027A.7.7,0,0,1,184.93,142.428Z" transform="translate(-156.531 -85.883)" fill="#ffd39f"/>
      <path id="Path_13406" data-name="Path 13406" d="M265.5,297.79l1.661.6,0,0a1.953,1.953,0,0,0-1.073,1.585V303.1h-1.69l-.724-4.273.7.467,1.126-1.5v-.006Z" transform="translate(-239.178 -234.782)" fill="#6698e4"/>
      <path id="Path_13407" data-name="Path 13407" d="M179.068,90.81a3.873,3.873,0,0,1,3.865,4.14l-.085.593-.694.536-.042-.647a1.33,1.33,0,0,0-1.069-1.216c-1.561.763-2.964-.06-4.134-.68A4.61,4.61,0,0,0,175.592,93a1.7,1.7,0,0,1-1.042-.6,25.031,25.031,0,0,0,2.612-1.079,5.326,5.326,0,0,1,.91-.382A3.835,3.835,0,0,1,179.068,90.81Z" transform="translate(-155.083 -39.737)" fill="#828a9e"/>
      <path id="Path_13408" data-name="Path 13408" d="M257.234,285.069l1.018-.679v.751l-1.126,1.5-.7-.467-.426-.284Z" transform="translate(-231.965 -222.21)" fill="#fff"/>
      <path id="Path_13409" data-name="Path 13409" d="M236.316,269.115v1.1l-1.234.823-1.231-.821v-1.533l0-.012a3.677,3.677,0,0,0,2.461-.009Z" transform="translate(-211.075 -207.376)" fill="#ffd39f"/>
      <path id="Path_13410" data-name="Path 13410" d="M236.3,315.967l.734-4.321.355-.236.426.284.724,4.273.007.043-1.127,1.5-1.127-1.5Z" transform="translate(-213.379 -247.525)" fill="#fff56f"/>
      <path id="Path_13411" data-name="Path 13411" d="M216.492,285.071l1.231.821-.355.236-.772.515-1.126-1.5v-.751Z" transform="translate(-193.746 -222.21)" fill="#fff"/>
      <path id="Path_13412" data-name="Path 13412" d="M188.348,299.307l.772-.515-.734,4.321h-1.752v-3.125a1.953,1.953,0,0,0-1.073-1.585l0,0,1.659-.6h0v.006Z" transform="translate(-165.528 -234.792)" fill="#6698e4"/>
      <path id="Path_13413" data-name="Path 13413" d="M187.851,130.756l-.189.26a4.866,4.866,0,0,0-.505,2.229l0,.178-.925-.633,0-.05-.083-.57a3.857,3.857,0,0,1,.326-1.845l.062-.1A4.611,4.611,0,0,1,187.851,130.756Z" transform="translate(-166.092 -76.831)" fill="#84879c"/>
      <path id="Path_13414" data-name="Path 13414" d="M168.162,310.16v3.125H166V310.16a1.953,1.953,0,0,1,1.073-1.585l.014-.005,0,.005A1.953,1.953,0,0,1,168.162,310.16Z" transform="translate(-147.098 -244.959)" fill="#6698e4"/>
      <path id="Path_13415" data-name="Path 13415" d="M21.977,229.15l-2.989,4.557L16,229.15Z" transform="translate(-5.661 -170.089)" fill="#6fff91"/>
      <path id="Path_13416" data-name="Path 13416" d="M119.75,195.011a.333.333,0,0,0-.558,0l-2.989,4.557a.341.341,0,0,0-.015.346.337.337,0,0,0,.293.179h2.55a10.457,10.457,0,0,1-3.575,6.534,10,10,0,0,1-6.357,2.487A9.45,9.45,0,0,1,104.772,208a10.766,10.766,0,0,1-3.688-3.164.333.333,0,1,0-.538.394,11.434,11.434,0,0,0,3.917,3.36,10.114,10.114,0,0,0,4.638,1.192,10.668,10.668,0,0,0,6.791-2.645,11.2,11.2,0,0,0,3.813-7.041h2.755a.339.339,0,0,0,.279-.522Zm-2.65,4.415,2.371-3.616,2.371,3.616Z" transform="translate(-84.787 -137.453)" fill="#3c3b5c"/>
      <path id="Path_13417" data-name="Path 13417" d="M13.328,63.652a.333.333,0,0,0,.279-.151L16.6,58.945a.341.341,0,0,0,.015-.345.337.337,0,0,0-.293-.179h-2.55a10.457,10.457,0,0,1,3.575-6.534A10,10,0,0,1,23.7,49.4a9.45,9.45,0,0,1,4.329,1.117,10.766,10.766,0,0,1,3.688,3.164.333.333,0,1,0,.538-.394,11.434,11.434,0,0,0-3.917-3.36A10.114,10.114,0,0,0,23.7,48.734a10.668,10.668,0,0,0-6.791,2.645,11.2,11.2,0,0,0-3.813,7.041H10.339a.339.339,0,0,0-.279.522L13.049,63.5A.334.334,0,0,0,13.328,63.652ZM15.7,59.087,13.328,62.7l-2.371-3.615Z" fill="#3c3b5c"/>
      <path id="Path_13418" data-name="Path 13418" d="M162.711,96.227v.525l-1.425.534-.008.005a.29.29,0,0,0-.037.017,2.368,2.368,0,0,0-1.254,1.909c0,.009,0,.019,0,.029v3.216a.319.319,0,0,0,.333.32h3.708l1.059,1.464a.319.319,0,0,0,.534,0l1.059-1.461h3.646a.319.319,0,0,0,.333-.32V99.246c0-.01,0-.019,0-.029a2.37,2.37,0,0,0-1.256-1.909c-.013-.007-.013-.013-.027-.018l-1.439-.539v-.525a.357.357,0,0,0-.189-.3.391.391,0,0,0-.037-.014H167.7l-.821-.344V95.56a4.109,4.109,0,0,0,2.415-3.526,1.3,1.3,0,0,0,.779-1.2,1.354,1.354,0,0,0-.035-.31,1.048,1.048,0,0,0-.579-.719l.048-.339c0-.008,0-.017,0-.025a4.38,4.38,0,0,0-1.518-3.639,4.11,4.11,0,0,0-3.761-.839,4.554,4.554,0,0,0-.829.347l-.138.069a24.764,24.764,0,0,1-2.568,1.093.338.338,0,0,0-.217.221.351.351,0,0,0,.048.31,2.031,2.031,0,0,0,.842.634,4.468,4.468,0,0,0-.253,1.806c0,.009,0,.018,0,.026l.048.337a1.046,1.046,0,0,0-.582.721,1.32,1.32,0,0,0,.562,1.418,1.171,1.171,0,0,0,.178.084,4.115,4.115,0,0,0,2.422,3.542l-.8.341,0,0c-.011,0-.035.009-.045.015A.357.357,0,0,0,162.711,96.227ZM167.7,97.4l.834.31a2.4,2.4,0,0,0-.7,1.5c0,.009,0,.019,0,.029v2.85h-1.069l-.548-3.316.057.045a.323.323,0,0,0,.452-.075Zm-.43-.518-.883,1.208-.451-.287h0l0-.02,1.331-.918Zm-1.056-.143-.891.618-.888-.616v-.953a3.733,3.733,0,0,0,.878.1,3.689,3.689,0,0,0,.9-.108Zm-2.835.126,1.331.9-.454.307-.877-1.194Zm.552,1.883a.327.327,0,0,0,.452.08l.129-.1-.557,3.365h-1.131v-2.85c0-.009,0-.019,0-.029a2.4,2.4,0,0,0-.7-1.5l.833-.31Zm-3.275.51a1.689,1.689,0,0,1,.75-1.255,1.718,1.718,0,0,1,.75,1.255V102.1h-1.5Zm4.7,4.218-.774-1.062.693-4.2.05-.034.122.083.684,4.15Zm4.638-4.218V102.1h-1.5V99.261a1.718,1.718,0,0,1,.75-1.255A1.689,1.689,0,0,1,169.992,99.261ZM163.552,86l.142-.07a4,4,0,0,1,.711-.3,3.462,3.462,0,0,1,3.158.705,3.689,3.689,0,0,1,1.284,3.051l-.064.46-.091.073v-.023a1.7,1.7,0,0,0-1.337-1.565.325.325,0,0,0-.211.029c-1.337.673-2.577-.007-3.671-.606l-.161-.088a4.8,4.8,0,0,0-1.421-.587,1.307,1.307,0,0,1-.429-.15C162.268,86.608,163.2,86.17,163.552,86Zm-1.7,3.863-.068-.479a3.757,3.757,0,0,1,.238-1.573,4.3,4.3,0,0,1,.642.28,5.5,5.5,0,0,0-.522,1.977Zm.136,1.919a.34.34,0,0,0-.283-.339c-.055-.02-.173-.069-.217-.089a.627.627,0,0,1-.161-.159.638.638,0,0,1-.093-.5.364.364,0,0,1,.232-.266l.809.569a.326.326,0,0,0,.346.019.345.345,0,0,0,.176-.307l0-.184a4.8,4.8,0,0,1,.458-2.111v0c1.13.618,2.516,1.335,4.069.619a1.021,1.021,0,0,1,.7.911l.042.666a.343.343,0,0,0,.2.29.326.326,0,0,0,.341-.041l.546-.434a.366.366,0,0,1,.243.27.643.643,0,0,1,.017.148.61.61,0,0,1-.493.606.347.347,0,0,0-.275.344,3.329,3.329,0,1,1-6.655-.006Z" transform="translate(-141.317 -34.074)" fill="#3c3b5c"/>
    </g>
  </g>
</svg>
