<svg id="Rent_Hire" data-name="Rent &amp; Hire" xmlns="http://www.w3.org/2000/svg" width="28" height="28" viewBox="0 0 28 28">
  <path id="Rectangle_91" data-name="Rectangle 91" d="M0,0H28V28H0Z" fill="none"/>
  <g id="Filledotuline" transform="translate(-11.5 -23.511)">
    <path id="Path_14315" data-name="Path 14315" d="M251.58,152v2.506l-.716.716.716.716-.716.716.716.716-.716.716.716.716v1.074l-1.79,1.074L248,159.877V152Z" transform="translate(-221.617 -119.525)" fill="#e4e4e3"/>
    <path id="Path_14316" data-name="Path 14316" d="M216,37.041v2.529a.889.889,0,0,0,.461.783l2.327,1.293a.883.883,0,0,0,.868,0l2.327-1.293a.9.9,0,0,0,.461-.783V37.041a.889.889,0,0,0-.461-.783l-2.327-1.293a.883.883,0,0,0-.868,0l-2.327,1.293a.889.889,0,0,0-.461.783Z" transform="translate(-191.049 -7.618)" fill="#0093b9"/>
    <circle id="Ellipse_965" data-name="Ellipse 965" cx="0.716" cy="0.716" r="0.716" transform="translate(27.457 28.894)" fill="#f3f2f2"/>
    <path id="Path_14317" data-name="Path 14317" d="M89.432,360H90.7a8.008,8.008,0,0,1,3.58.846,2.138,2.138,0,0,0,.971.228h2.775a.9.9,0,1,1,0,1.79H98a1.848,1.848,0,0,0,.729-.148l2.994-1.271a.941.941,0,0,1,1.231.506.064.064,0,0,1,.009.027.969.969,0,0,1-.542,1.258h0l-5.531,2.108a5.85,5.85,0,0,1-4.292-.049l-3.164-1.311L88,363.938V360Z" transform="translate(-68.778 -318.217)" fill="#f8caa8"/>
    <path id="Path_14318" data-name="Path 14318" d="M16,352h4.654v5.012H16Z" transform="translate(0 -310.575)" fill="#0093b9"/>
    <path id="Path_14319" data-name="Path 14319" d="M208.549,33.043l.788.439v6.87a.366.366,0,0,0,.175.309l1.79,1.074a.36.36,0,0,0,.367,0l1.79-1.074a.355.355,0,0,0,.175-.309V39.277a.362.362,0,0,0-.1-.255l-.465-.461.461-.461a.359.359,0,0,0,0-.506h0l-.461-.465.461-.461a.359.359,0,0,0,0-.506h0l-.461-.465.461-.461a.355.355,0,0,0,.1-.255v-1.5l.788-.439a1.25,1.25,0,0,0,.644-1.1V29.423a1.255,1.255,0,0,0-.644-1.1l-2.327-1.293a1.253,1.253,0,0,0-1.217,0l-2.327,1.293a1.25,1.25,0,0,0-.644,1.1v2.529a1.262,1.262,0,0,0,.649,1.092Zm4.368,1.79-.6.6a.375.375,0,0,0-.009.515h0l.461.461-.461.461a.359.359,0,0,0,0,.506h0l.461.461-.461.461a.359.359,0,0,0,0,.506h0l.613.613v.725L211.485,41l-1.432-.859V33.88l.716.4v3.567a.359.359,0,0,0,.358.358h0a.359.359,0,0,0,.358-.358V34.493a1.258,1.258,0,0,0,.609-.157l.823-.456Zm-4.3-5.411a.537.537,0,0,1,.277-.47l2.327-1.293a.544.544,0,0,1,.524,0l2.327,1.293a.537.537,0,0,1,.277.47v2.529a.537.537,0,0,1-.277.47l-2.327,1.293a.544.544,0,0,1-.524,0L208.9,32.421a.537.537,0,0,1-.277-.47Z" transform="translate(-183.312 0)" fill="#193651"/>
    <path id="Path_14320" data-name="Path 14320" d="M265.074,66.148A1.074,1.074,0,1,0,264,65.074,1.071,1.071,0,0,0,265.074,66.148Zm0-1.432a.358.358,0,1,1-.358.358A.359.359,0,0,1,265.074,64.716Z" transform="translate(-236.901 -35.464)" fill="#193651"/>
    <path id="Path_14321" data-name="Path 14321" d="M264.358,128h1.432a.359.359,0,0,1,.358.358h0a.359.359,0,0,1-.358.358h-1.432a.359.359,0,0,1-.358-.358h0A.359.359,0,0,1,264.358,128Z" transform="translate(-236.901 -96.599)" fill="#193651"/>
    <path id="Path_14323" data-name="Path 14323" d="M34.523,346.655a1.3,1.3,0,0,0-1.714-.729l-2.314.985a1.252,1.252,0,0,0-1.119-1.374,1.22,1.22,0,0,0-.13,0H26.468a1.813,1.813,0,0,1-.81-.192,8.42,8.42,0,0,0-3.741-.882h-.9a.359.359,0,0,0-.358-.358h-4.3a.354.354,0,0,0-.354.354h0v5.012h0a.354.354,0,0,0,.354.354h4.3a.359.359,0,0,0,.358-.358v-.134l2.672,1.11a6.187,6.187,0,0,0,4.556.049l5.531-2.108a1.329,1.329,0,0,0,.752-1.723Zm-17.807,2.452a.021.021,0,0,1-.022-.022v-4.252a.021.021,0,0,1,.022-.022h3.558a.03.03,0,0,1,.022.018v4.26a.03.03,0,0,1-.022.018Zm17.131-1.714h0a.592.592,0,0,1-.331.318l-5.531,2.108a5.469,5.469,0,0,1-4.028-.045l-2.945-1.222V345.17h.908a7.68,7.68,0,0,1,3.419.806,2.6,2.6,0,0,0,1.128.269h2.779a.537.537,0,0,1,.022,1.074H24.951v.716h4.3a.436.436,0,0,0,.076,0,2.214,2.214,0,0,0,.774-.175l2.994-1.271a.556.556,0,0,1,.448,0,.6.6,0,0,1,.322.331A.634.634,0,0,1,33.847,347.394Z" transform="translate(0 -303.028)" fill="#193651"/>
    <path id="Path_14324" data-name="Path 14324" d="M80.358,424h0a.359.359,0,0,1,.358.358h0a.359.359,0,0,1-.358.358h0a.359.359,0,0,1-.358-.358h0A.359.359,0,0,1,80.358,424Z" transform="translate(-61.136 -379.352)" fill="#193651"/>
  </g>
</svg>
