<svg xmlns="http://www.w3.org/2000/svg" width="28" height="28" viewBox="0 0 28 28">
  <defs>
    <style>
      .cls-1 {
        fill: #e5e5e5;
        opacity: 0;
      }

      .cls-2 {
        fill: none;
      }

      .cls-3 {
        fill: #0fe;
      }

      .cls-4 {
        fill: #ffd39f;
      }

      .cls-5 {
        fill: #333a60;
        stroke: #333a60;
        stroke-width: 0.3px;
      }

      .cls-6 {
        fill: #323c6b;
      }

      .cls-7 {
        fill: #d4e1f4;
      }

      .cls-8 {
        fill: #fff;
      }
    </style>
  </defs>
  <g id="Wedding_Requisites" data-name="Wedding Requisites" transform="translate(-23 -359)">
    <rect id="Rectangle_8759" data-name="Rectangle 8759" class="cls-1" width="28" height="28" transform="translate(23 359)"/>
    <g id="Flights" transform="translate(23 359)">
      <path id="Rectangle_91" data-name="Rectangle 91" class="cls-2" d="M0,0H28V28H0Z"/>
      <g id="daily-needs-icn">
        <path id="Rectangle_91-2" data-name="Rectangle 91" class="cls-2" d="M0,0H28V28H0Z"/>
        <g id="Group_14392" data-name="Group 14392" transform="translate(2 3.385)">
          <g id="Group_14392-2" data-name="Group 14392" transform="translate(0)">
            <path id="Path_12366" data-name="Path 12366" class="cls-3" d="M-731.249,683.073c-.129,0-.163-.041-.162-.157q0-1.286,0-2.573a.287.287,0,0,1,.11-.236q1.137-.991,2.268-1.988c.195-.171.2-.247.069-.459-.183-.287-.362-.577-.554-.858-.076-.112-.059-.176.045-.26.537-.438,1.069-.883,1.6-1.326.178-.148.2-.234.089-.427-.223-.406-.449-.81-.672-1.216-.154-.28-.306-.561-.471-.864a.478.478,0,0,1,.1,0,12.485,12.485,0,0,1,1.366.452,2.253,2.253,0,0,1,1.408,2.179c.007,1.4,0,2.8,0,4.193q0,1.681,0,3.362c0,.172-.006.176-.185.176" transform="translate(749.112 -662.684)"/>
            <path id="Path_12367" data-name="Path 12367" class="cls-4" d="M-1124.295,686.59q0,1.822,0,3.644c0,.182,0,.183.185.183.362,0,.724-.005,1.085,0,.115,0,.148-.038.163-.151a12.141,12.141,0,0,0,.094-1.777,5.783,5.783,0,0,0-.4-1.941,4.256,4.256,0,0,1-.181-2.382,4.9,4.9,0,0,1,.395-1.132.635.635,0,0,1,.354-.306,2.342,2.342,0,0,1,.338-.125.163.163,0,0,0,.137-.19c0-.621,0-1.242,0-1.862,0-.178-.016-.192-.182-.139a2.792,2.792,0,0,0-1.564,1.21,2.79,2.79,0,0,0-.426,1.525Q-1124.292,684.869-1124.295,686.59Z" transform="translate(1125.412 -670.039)"/>
            <path id="Path_12368" data-name="Path 12368" class="cls-5" d="M-1139.791,448.379c0,.063-.011.11-.011.157q0,3.464,0,6.927c0,.133.045.168.17.164.241-.008.483-.01.723,0,.139.006.172-.044.171-.177q-.008-2.941-.008-5.882c0-.585-.01-1.17,0-1.755a2.76,2.76,0,0,1,1.912-2.52c.738-.238,1.47-.493,2.206-.734a.135.135,0,0,0,.11-.153c0-.313,0-.625,0-.938a.238.238,0,0,0-.085-.163,2.825,2.825,0,0,1-1.073-1.586c-.03-.112-.035-.23-.066-.341a.212.212,0,0,0-.1-.133,1.613,1.613,0,0,1-1.007-1.092,3.452,3.452,0,0,1,.458-3.112,1.546,1.546,0,0,1,.969-.667.177.177,0,0,0,.148-.149,1.187,1.187,0,0,1,.876-.871,3.55,3.55,0,0,1,1.355-.082,4.3,4.3,0,0,1,2.346.878,3.788,3.788,0,0,1,1.384,1.846,2.787,2.787,0,0,1-.565,2.93,1.289,1.289,0,0,0-.361.684,2.62,2.62,0,0,1-1.2,1.762.271.271,0,0,0-.146.269c.01.25.005.5,0,.75,0,.1.031.136.129.165.783.225,1.573.434,2.343.7a2.592,2.592,0,0,1,1.7,1.788,3.322,3.322,0,0,1,.134.921c.013,1.71.008,5.827.008,7.537a.866.866,0,0,1-.005.16.212.212,0,0,1-.217.2.208.208,0,0,1-.239-.183,1.091,1.091,0,0,1-.012-.2c0-1.711-.011-5.827-.01-7.537a2.335,2.335,0,0,0-.4-1.363,2.331,2.331,0,0,0-1.333-.95l-.939-.262a.856.856,0,0,0-.1-.013,1.8,1.8,0,0,0,.067.17q.505.965,1.014,1.93c.114.217.1.292-.08.453-.5.436-.992.872-1.492,1.3-.087.075-.1.133-.04.234.182.286.353.578.528.869.117.194.107.273-.062.431q-1.053.982-2.109,1.96a.3.3,0,0,0-.107.243q.006,1.266,0,2.532c0,.117.031.154.15.153q1.394-.007,2.787,0c.141,0,.171-.051.171-.18q0-2.941,0-5.882c0-.123.013-.231.141-.29a.225.225,0,0,1,.318.16,1.164,1.164,0,0,1,.008.187q0,2.907,0,5.815c0,.184,0,.184.184.185l1.929,0a.666.666,0,0,1,.159.013.255.255,0,0,1,.209.256.3.3,0,0,1-.265.224c-.031,0-.062,0-.094,0q-11.644,0-23.287,0a.34.34,0,0,1-.289-.1.213.213,0,0,1,.079-.352.531.531,0,0,1,.207-.039q.992,0,1.983,0c.109,0,.153-.025.169-.143a8.234,8.234,0,0,0,.022-2.548,11.119,11.119,0,0,0-.381-1.347,4.208,4.208,0,0,1-.051-2.49c.07-.238.175-.466.256-.7a.814.814,0,0,1,.538-.514c.308-.111.306-.117.306-.44q0-.851,0-1.7c0-.142-.023-.161-.157-.113a2.764,2.764,0,0,0-1.925,2.289,3.446,3.446,0,0,0-.038.546c0,1.519,0,5.57,0,7.088a.513.513,0,0,1-.021.2.218.218,0,0,1-.265.129.213.213,0,0,1-.178-.233c0-.509,0-3.551,0-4.06q0-1.514,0-3.028c0-.055-.009-.11-.014-.168-.382.088-.458.035-.445-.346.027-.781.04-1.563.107-2.341.077-.883.183-1.766.323-2.642a18.371,18.371,0,0,1,.982-3.783,7.681,7.681,0,0,1,1.528-2.571,3.691,3.691,0,0,1,1.805-1.094,3.671,3.671,0,0,1,1.234-.093,3.9,3.9,0,0,1,2.872,1.8,8.607,8.607,0,0,1,1.2,2.538c.216.711.4,1.433.555,2.16.149.71.262,1.43.345,2.151.114.988.191,1.98.272,2.972.026.32,0,.643.024.964C-1139.335,448.393-1139.5,448.508-1139.791,448.379Zm4.191-2.955a.422.422,0,0,0-.1,0,11.188,11.188,0,0,0-1.272.445,2.227,2.227,0,0,0-1.311,2.145c-.006,1.376,0,2.751,0,4.127q0,1.655,0,3.309c0,.169.005.173.173.173h1.152c.213,0,.213,0,.213-.213l.01-4.1c0-.138,0-.277,0-.415a.239.239,0,0,1,.231-.247.233.233,0,0,1,.237.238c0,.058,0,.116,0,.174q-.006,2.2-.015,4.395c0,.125.031.172.164.171q1.333-.008,2.666,0c.121,0,.151-.04.151-.154q0-1.266,0-2.532a.29.29,0,0,0-.1-.233q-1.058-.976-2.112-1.956c-.181-.168-.19-.243-.064-.452.171-.282.337-.567.516-.845.071-.11.055-.173-.041-.256-.5-.431-.995-.869-1.491-1.305-.165-.146-.182-.231-.083-.42.208-.4.418-.8.626-1.2C-1135.895,446-1135.754,445.722-1135.6,445.424Zm-8.56-7.087c-.038.034-.069.058-.1.086a4.88,4.88,0,0,1-2.673,1.415c-.087.016-.123.05-.123.139,0,.491-.009.982.007,1.473a1.857,1.857,0,0,0,.292.947,2.15,2.15,0,0,0,2.426.813,1.87,1.87,0,0,0,1.416-1.921c0-.509,0-1.018,0-1.526a.2.2,0,0,0-.113-.2,2.615,2.615,0,0,1-1.064-1.116A.989.989,0,0,0-1144.16,438.338Zm-1.711,5.362c-.006.073-.013.125-.013.176,0,.344,0,.688,0,1.032a.265.265,0,0,1-.2.28c-.288.078-.575.16-.865.231a.146.146,0,0,0-.134.165q0,1,0,2c0,.11.046.141.153.15a3.069,3.069,0,0,1,.592.086,2.273,2.273,0,0,1,1.283.932c.056.081.092.1.154.007a2.262,2.262,0,0,1,1.831-1.025c.12-.005.151-.058.151-.167q0-.992,0-1.983c0-.093-.026-.147-.125-.172-.259-.064-.516-.138-.774-.208-.2-.054-.257-.128-.257-.33,0-.335,0-.67,0-1,0-.051-.01-.1-.017-.167A2.757,2.757,0,0,1-1145.872,443.7Zm15.193-3.875c-.061.036-.105.061-.148.088a2.669,2.669,0,0,1-2.7.17,4.47,4.47,0,0,1-1.606-1.344,1.234,1.234,0,0,1-.086-.144l-.054.041c0,.038-.011.077-.011.115,0,.473-.005.947,0,1.42.006.428,0,.857.045,1.282a1.852,1.852,0,0,0,.858,1.4,2.523,2.523,0,0,0,2.138.327,2.061,2.061,0,0,0,1.57-1.9c.026-.445.013-.892.016-1.339A.766.766,0,0,0-1130.678,439.825Zm-9.6,11.972q0-1.722,0-3.443a2.792,2.792,0,0,0-.426-1.525,2.792,2.792,0,0,0-1.564-1.21c-.167-.053-.183-.039-.183.139,0,.621,0,1.242,0,1.862a.163.163,0,0,0,.137.19,2.349,2.349,0,0,1,.338.125.635.635,0,0,1,.354.306,4.9,4.9,0,0,1,.395,1.132,4.257,4.257,0,0,1-.181,2.382,5.779,5.779,0,0,0-.4,1.941,12.141,12.141,0,0,0,.093,1.777c.014.113.047.153.163.151.362-.005.724,0,1.085,0,.184,0,.185,0,.185-.183Q-1140.283,453.619-1140.283,451.8Zm-6.649-6.88c-.024-.038-.028-.052-.038-.059-.04-.029-.081-.055-.121-.082a3.874,3.874,0,0,1-1.831-3.2c-.021-.436,0-.875,0-1.312,0-.053-.008-.107-.014-.189-.526.951-1.428,6.92-1.146,7.462.088-.225.16-.464.271-.685a3.231,3.231,0,0,1,2.193-1.75C-1147.392,445.05-1147.171,444.983-1146.932,444.917Zm7.045,2.622.024-.012c0-.138.009-.276,0-.413-.064-.841-.114-1.684-.207-2.522-.074-.668-.182-1.334-.311-1.994-.136-.695-.313-1.381-.478-2.07-.033-.137-.091-.268-.137-.4l-.039.01c0,.038-.006.077-.005.115,0,.366.022.733.011,1.1a4.825,4.825,0,0,1-.085.917,3.9,3.9,0,0,1-1.821,2.551,1.047,1.047,0,0,0-.1.084c.072.027.12.049.171.063.227.063.457.118.682.187a3.219,3.219,0,0,1,2.216,2.157C-1139.942,447.387-1139.914,447.463-1139.887,447.539Zm6.812,3.407.056,0,.8-5.207a1.574,1.574,0,0,1-1.65,0Zm-.955-6.758h0c0,.138-.008.277,0,.415a.866.866,0,0,0,.584.791,1.113,1.113,0,0,0,.671.04.886.886,0,0,0,.689-.719c.024-.306.014-.615.019-.923,0-.085-.035-.108-.119-.084a2.827,2.827,0,0,1-1.736-.05c-.076-.026-.111-.005-.111.075C-1134.029,443.885-1134.03,444.037-1134.03,444.188Z" transform="translate(1150.747 -435.246)"/>
            <path id="Path_12370" data-name="Path 12370" class="cls-6" d="M-705.874,873.384a.319.319,0,0,1-.31-.318.325.325,0,0,1,.323-.308.315.315,0,0,1,.313.313A.314.314,0,0,1-705.874,873.384Z" transform="translate(724.947 -854.293)"/>
            <path id="Path_12371" data-name="Path 12371" class="cls-3" d="M-852.719,676.355c-.154.3-.295.575-.438.851-.208.4-.418.8-.626,1.2-.1.19-.082.275.083.42.5.436.99.874,1.491,1.305a.164.164,0,0,1,.041.256c-.179.277-.345.562-.516.845-.126.208-.117.283.064.452q1.054.98,2.112,1.956a.289.289,0,0,1,.1.233q-.005,1.266,0,2.532c0,.114-.031.155-.151.154q-1.333-.006-2.666,0c-.133,0-.165-.046-.164-.171q.012-2.2.015-4.395c0-.058,0-.116,0-.174a.233.233,0,0,0-.237-.238.239.239,0,0,0-.231.247c0,.138,0,.277,0,.415q0,2.05-.01,4.1c0,.214,0,.214-.213.213h-1.152c-.167,0-.173,0-.173-.173q0-1.655,0-3.309c0-1.376-.01-2.751,0-4.127a2.227,2.227,0,0,1,1.31-2.145,11.188,11.188,0,0,1,1.272-.445A.424.424,0,0,1-852.719,676.355Zm-.9,3.862a.308.308,0,0,0-.316.308.316.316,0,0,0,.317.312.32.32,0,0,0,.314-.3A.323.323,0,0,0-853.618,680.216Zm2.227,5.049a.3.3,0,0,0,.311-.307.3.3,0,0,0-.31-.312.3.3,0,0,0-.3.3A.294.294,0,0,0-851.391,685.265Z" transform="translate(867.866 -666.176)"/>
            <path id="Path_12372" data-name="Path 12372" class="cls-4" d="M-1060.334,508.5a1.008,1.008,0,0,1,.073.106,2.613,2.613,0,0,0,1.064,1.116.2.2,0,0,1,.113.2c0,.509,0,1.018,0,1.526a1.87,1.87,0,0,1-1.416,1.921,2.151,2.151,0,0,1-2.426-.813,1.856,1.856,0,0,1-.292-.947c-.016-.49,0-.982-.007-1.473,0-.089.036-.123.123-.139a4.882,4.882,0,0,0,2.673-1.415C-1060.4,508.562-1060.372,508.538-1060.334,508.5Z" transform="translate(1066.92 -505.412)"/>
            <path id="Path_12373" data-name="Path 12373" class="cls-4" d="M-1062.772,635.511a2.758,2.758,0,0,0,1.777,0c.007.066.017.117.017.167,0,.335,0,.67,0,1,0,.2.058.277.257.33.258.07.515.143.774.208.1.024.125.078.125.172q0,.991,0,1.983c0,.109-.031.162-.151.167a2.262,2.262,0,0,0-1.831,1.025c-.062.089-.1.074-.155-.007a2.272,2.272,0,0,0-1.283-.932,3.072,3.072,0,0,0-.592-.086c-.107-.009-.153-.04-.153-.15q0-1,0-2a.147.147,0,0,1,.134-.165c.29-.07.577-.152.865-.231a.265.265,0,0,0,.2-.28c0-.344,0-.688,0-1.032C-1062.784,635.636-1062.777,635.584-1062.772,635.511Z" transform="translate(1067.647 -627.057)"/>
            <path id="Path_12374" data-name="Path 12374" class="cls-4" d="M-779.815,515.844a.753.753,0,0,1,.023.122c0,.446.01.894-.017,1.339a2.061,2.061,0,0,1-1.569,1.9,2.523,2.523,0,0,1-2.138-.327,1.852,1.852,0,0,1-.857-1.4c-.041-.425-.039-.854-.045-1.282-.007-.473,0-.946,0-1.42a1.132,1.132,0,0,1,.011-.115l.054-.041a1.235,1.235,0,0,0,.086.144,4.472,4.472,0,0,0,1.606,1.344,2.669,2.669,0,0,0,2.7-.17C-779.92,515.905-779.876,515.88-779.815,515.844Z" transform="translate(799.884 -511.265)"/>
            <path id="Path_12375" data-name="Path 12375" class="cls-4" d="M-952.122,686.59q0,1.822,0,3.644c0,.182,0,.183-.185.183-.362,0-.724-.005-1.085,0-.115,0-.148-.038-.163-.151a12.175,12.175,0,0,1-.093-1.777,5.784,5.784,0,0,1,.4-1.941,4.257,4.257,0,0,0,.181-2.382,4.908,4.908,0,0,0-.395-1.132.635.635,0,0,0-.354-.306,2.349,2.349,0,0,0-.338-.125.163.163,0,0,1-.137-.19c0-.621,0-1.242,0-1.862,0-.178.016-.192.183-.139a2.791,2.791,0,0,1,1.564,1.21,2.791,2.791,0,0,1,.426,1.525Q-952.125,684.869-952.122,686.59Z" transform="translate(962.586 -670.039)"/>
            <path id="Path_12376" data-name="Path 12376" class="cls-7" d="M-1133,554.586c-.239.066-.46.133-.683.189a3.232,3.232,0,0,0-2.193,1.75c-.111.22-.183.46-.271.685-.282-.542.619-6.511,1.146-7.462.007.083.014.136.014.189,0,.437-.024.876,0,1.312a3.874,3.874,0,0,0,1.831,3.2c.041.027.082.053.121.082C-1133.031,554.534-1133.026,554.548-1133,554.586Z" transform="translate(1136.817 -544.914)"/>
            <path id="Path_12377" data-name="Path 12377" class="cls-7" d="M-964.941,558.328c-.027-.076-.055-.152-.081-.229a3.22,3.22,0,0,0-2.216-2.156c-.225-.069-.455-.124-.682-.187-.05-.014-.1-.036-.171-.063a1.064,1.064,0,0,1,.1-.084,3.9,3.9,0,0,0,1.821-2.551,4.834,4.834,0,0,0,.086-.917c.011-.366-.007-.732-.011-1.1,0-.038,0-.077.005-.115l.039-.01c.046.134.1.264.137.4.165.689.342,1.375.477,2.07.129.66.237,1.326.311,1.994.093.838.142,1.681.207,2.521.01.137,0,.275,0,.413Z" transform="translate(975.801 -546.035)"/>
            <path id="Path_12378" data-name="Path 12378" class="cls-8" d="M-750.162,688.926l-.8-5.214a1.574,1.574,0,0,0,1.65,0l-.8,5.207Z" transform="translate(767.835 -673.225)"/>
            <path id="Path_12379" data-name="Path 12379" class="cls-4" d="M-754.708,634.844c0-.152,0-.3,0-.455,0-.081.035-.1.111-.075a2.826,2.826,0,0,0,1.737.05c.083-.024.12,0,.119.084,0,.308,0,.617-.019.923a.886.886,0,0,1-.689.719,1.113,1.113,0,0,1-.671-.041.866.866,0,0,1-.584-.791c-.01-.138,0-.277,0-.415Z" transform="translate(771.425 -625.901)"/>
            <path id="Path_12381" data-name="Path 12381" class="cls-6" d="M-820.362,767.9a.324.324,0,0,1,.315.316.32.32,0,0,1-.314.3.316.316,0,0,1-.317-.312A.308.308,0,0,1-820.362,767.9Z" transform="translate(834.609 -753.862)"/>
            <path id="Path_12382" data-name="Path 12382" class="cls-6" d="M-767.27,873.467a.294.294,0,0,1-.3-.315.3.3,0,0,1,.3-.3.3.3,0,0,1,.31.312A.3.3,0,0,1-767.27,873.467Z" transform="translate(783.744 -854.378)"/>
          </g>
        </g>
      </g>
    </g>
  </g>
</svg>
