<svg xmlns="http://www.w3.org/2000/svg" width="20.1" height="30" viewBox="0 0 20.1 30">
  <defs>
    <style>
      .cls-1 {
        fill: #fff;
        opacity: 0;
      }

      .cls-2 {
        fill: #0f76d7;
        stroke: #0f76d7;
        stroke-width: 0.2px;
      }
    </style>
  </defs>
  <g id="Language" transform="translate(-945 -38)">
    <g id="Group_7056" data-name="Group 7056">
      <g id="Group_6423" data-name="Group 6423" transform="translate(857 23)">
        <path id="Path_3272" data-name="Path 3272" class="cls-1" d="M0,0H20V30H0Z" transform="translate(88 15)"/>
      </g>
    </g>
    <g id="XMLID_59_" transform="translate(947 44)">
      <g id="XMLID_969_" transform="translate(0 0)">
        <path id="XMLID_1023_" class="cls-2" d="M16.135,0H13.324a.352.352,0,0,0,0,.7h2.811A1.163,1.163,0,0,1,17.3,1.865V7.557a1.163,1.163,0,0,1-1.162,1.161.352.352,0,0,0-.352.352v1.488L13.728,8.8a.351.351,0,0,0-.228-.084H7.349A1.163,1.163,0,0,1,6.187,7.557V1.865A1.163,1.163,0,0,1,7.349.7h6.737a.352.352,0,0,0,0-.7H7.349A1.867,1.867,0,0,0,5.484,1.865V6.328H1.865A1.867,1.867,0,0,0,0,8.193v5.693a1.868,1.868,0,0,0,1.513,1.831v1.932a.352.352,0,0,0,.58.267L4.63,15.75h6.021a1.867,1.867,0,0,0,1.865-1.865V9.422h.855l2.537,2.166a.352.352,0,0,0,.58-.267V9.389A1.868,1.868,0,0,0,18,7.557V1.865A1.867,1.867,0,0,0,16.135,0ZM6.264,9.826l.7,1.846h-1.4Zm5.549,4.059a1.163,1.163,0,0,1-1.161,1.162H4.5a.351.351,0,0,0-.228.084L2.216,16.886V15.4a.352.352,0,0,0-.352-.352A1.163,1.163,0,0,1,.7,13.885V8.193A1.163,1.163,0,0,1,1.865,7.031h3.62v.526a1.856,1.856,0,0,0,.462,1.226.444.444,0,0,0-.091.14l0,.008-1.5,3.951a.352.352,0,1,0,.657.25l.289-.758H7.225l.286.757a.352.352,0,1,0,.658-.248L6.835,9.349a1.859,1.859,0,0,0,.514.073h4.464Z" transform="translate(0 0)"/>
        <path id="Path_145126" data-name="Path 145126" class="cls-2" d="M-3.984-4.667l-.5.5a2.425,2.425,0,0,0,1.742.735A1.663,1.663,0,0,0-.926-5.073a1.885,1.885,0,0,0-.019-.242A1.673,1.673,0,0,0-.22-5.16,1.582,1.582,0,0,0,.429-5.3V-2.78h.735V-8.373H2.335v-.619H-.607v.619H.429v2.38a1.58,1.58,0,0,1-.832.2,1.785,1.785,0,0,1-.919-.242,1.385,1.385,0,0,0-.571-.31V-6.38A1.34,1.34,0,0,0-1.207-7.56,1.43,1.43,0,0,0-2.765-9a1.7,1.7,0,0,0-1.374.619l.513.464a.978.978,0,0,1,.842-.426.78.78,0,0,1,.842.832.913.913,0,0,1-1.006.939h-.3v.648h.523c.687,0,1.064.319,1.064.861a.968.968,0,0,1-1.084.987A1.614,1.614,0,0,1-3.984-4.667Z" transform="translate(12.556 11.299)"/>
      </g>
    </g>
  </g>
</svg>
