<svg xmlns="http://www.w3.org/2000/svg" width="30" height="30" viewBox="0 0 30 30">
  <defs>
    <style>
      .cls-1 {
        fill: #fff;
        opacity: 0;
      }
    </style>
  </defs>
  <g id="Cart" transform="translate(-935 -38)">
    <g id="Login">
      <g id="Group_6423" data-name="Group 6423" transform="translate(857 23)">
        <path id="Path_3272" data-name="Path 3272" class="cls-1" d="M0,0H30V30H0Z" transform="translate(78 15)"/>
      </g>
    </g>
    <g id="layer2" transform="translate(941.001 44)">
      <path id="path2846" d="M6.034,0A1.642,1.642,0,0,0,4.391,1.643V6.033a.549.549,0,1,0,1.1,0V1.643A.541.541,0,0,1,6.034,1.1h9.877a.545.545,0,0,1,.546.546V15.91a.543.543,0,0,1-.546.546H6.034a.543.543,0,0,1-.546-.546V11.521a.549.549,0,1,0-1.1,0V15.91a1.644,1.644,0,0,0,1.643,1.644h9.877a1.644,1.644,0,0,0,1.643-1.644V1.643A1.644,1.644,0,0,0,15.911,0ZM8.391,6.426l1.8,1.8H.548a.549.549,0,0,0,0,1.1H10.2l-1.805,1.8a.55.55,0,1,0,.778.778l2.742-2.742a.547.547,0,0,0,0-.774L9.169,5.648a.55.55,0,0,0-.778.778Z" transform="translate(0 0)"/>
    </g>
  </g>
</svg>
